<?xml version="1.0" standalone="no"?>
<!DOCTYPE svg PUBLIC "-//W3C//DTD SVG 20010904//EN"
 "http://www.w3.org/TR/2001/REC-SVG-20010904/DTD/svg10.dtd">
<svg version="1.0" xmlns="http://www.w3.org/2000/svg"
 width="294.000000pt" height="457.000000pt" viewBox="0 0 294.000000 457.000000"
 preserveAspectRatio="xMidYMid meet">

<g transform="translate(0.000000,457.000000) scale(0.100000,-0.100000)"
fill="#000000" stroke="none">
<path d="M1935 4559 c-135 -20 -280 -83 -335 -145 -18 -21 -38 -63 -51 -107
-75 -258 -81 -270 -159 -282 -178 -29 -532 -196 -707 -335 -69 -55 -67 -48
-39 -190 l11 -55 55 2 c30 2 168 25 305 52 138 28 279 53 314 57 64 7 64 7 58
-17 -4 -13 -25 -141 -47 -284 -43 -275 -87 -526 -99 -572 l-7 -28 -160 3
c-170 4 -239 -4 -369 -43 -160 -49 -291 -130 -420 -259 -186 -187 -266 -375
-282 -661 -13 -248 49 -459 195 -665 64 -91 213 -242 368 -376 85 -72 134
-122 138 -139 10 -38 -9 -94 -53 -162 -106 -164 -207 -226 -421 -258 -52 -8
-102 -15 -110 -15 -24 -1 29 -28 99 -50 77 -24 198 -26 289 -5 169 40 397 191
503 333 l25 32 104 -16 c127 -19 409 -14 539 10 588 109 1043 452 1191 896 62
183 78 445 39 633 -73 358 -298 599 -584 624 -93 8 -93 16 -4 53 99 41 239
127 298 183 105 101 160 235 168 413 7 140 -6 213 -57 320 -101 211 -388 404
-704 475 -32 7 -60 19 -63 26 -3 7 17 59 45 116 74 149 192 289 312 368 l24
16 -56 21 c-106 40 -223 50 -353 31z m237 -954 c204 -43 360 -179 375 -329 11
-110 -60 -263 -170 -362 -130 -117 -356 -226 -580 -279 -104 -25 -101 -27 -93
63 18 203 123 811 156 896 9 26 10 26 124 26 64 0 147 -7 188 -15z m-965
-1319 c9 -9 -10 -106 -67 -351 -52 -223 -84 -366 -94 -427 -4 -24 -12 -38 -22
-38 -32 0 -120 55 -171 106 -68 67 -103 143 -112 237 l-7 72 -38 -74 c-86
-168 -81 -318 15 -458 23 -32 83 -101 134 -153 l94 -95 -33 -85 c-19 -47 -40
-102 -49 -122 l-15 -37 -50 13 c-121 32 -257 129 -348 247 -56 73 -126 221
-149 313 -69 282 -23 503 138 660 103 102 221 160 390 192 72 14 371 14 384 0z
m1001 -11 c111 -22 231 -84 302 -155 189 -189 222 -529 78 -818 -96 -194 -349
-396 -642 -512 -202 -80 -465 -122 -635 -102 -51 6 -96 13 -98 16 -2 2 9 62
26 133 17 70 33 137 36 148 4 19 13 20 127 21 113 0 130 3 207 32 262 99 481
330 551 584 25 89 27 237 5 323 -23 86 -73 191 -126 261 -25 34 -49 66 -53 73
-11 17 129 14 222 -4z m-556 -91 c173 -63 267 -166 284 -314 13 -120 -53 -284
-160 -394 -104 -107 -224 -158 -322 -136 -26 6 -53 15 -59 20 -9 7 13 121 78
417 101 459 95 433 101 433 3 0 38 -12 78 -26z"/>
</g>
</svg>
